<svg width="40" height="40" viewBox="0 0 59 59" fill="none" xmlns="http://www.w3.org/2000/svg"><rect width="59" height="59" rx="8" fill="#0C513F"></rect><path d="M31.6406 29.8772C30.9356 30.2218 30.1233 30.3119 29.3538 30.1311C28.5843 29.9502 27.9096 29.5105 27.4542 28.8932C26.9981 28.3011 26.7694 27.5781 26.8062 26.8448C26.8431 26.1116 27.1433 25.4125 27.6567 24.8646C28.1767 24.2969 28.8924 23.9244 29.6753 23.8141C30.4581 23.7038 31.2566 23.8629 31.9272 24.2629C33.2962 25.0685 34.8217 25.6036 36.4127 25.8361C37.6787 26.0035 38.962 26.0539 40.2518 26.1573C40.0979 22.3698 36.6395 17.5095 30.4727 17.307C28.5638 17.2596 26.6792 17.723 25.0335 18.6447C23.3878 19.5664 22.0472 20.9093 21.1642 22.5204C20.2812 24.1315 19.8913 25.9461 20.039 27.7577C20.1867 29.5693 20.866 31.305 21.9995 32.7673L21.8314 32.6475L19 40.1202L25.5175 35.6137C26.8402 36.2608 28.2956 36.6249 29.7817 36.6803C35.5119 36.9025 39.6392 32.6475 40.1479 28.6605C40.0965 28.6372 40.0424 28.6197 39.9867 28.6085C37.0923 28.3565 34.2924 28.6081 31.6406 29.8772Z" fill="#FFC501"></path></svg>